<svg xmlns="http://www.w3.org/2000/svg" width="688.993" height="751.448" viewBox="199.45 168.58 688.993 751.448"><defs><clipPath id="b"><path fill="currentColor" d="M811.5 573.5Q703 647 674 796T510 915q-135-30-196-133t-92.5-192.5Q190 500 203.5 397T302 223.5Q387 153 493.5 173t222 53.5Q831 260 875.5 380t-64 193.5Z"/></clipPath><filter id="a" x="-50vw" y="-50vh" width="100vw" height="100vh"><feFlood flood-color="#fff" result="neutral-gray"/><feTurbulence type="fractalNoise" baseFrequency="2.5" numOctaves="100" stitchTiles="stitch" result="noise"/><feColorMatrix in="noise" type="saturate" values="0" result="destaturatedNoise"/><feComponentTransfer in="desaturatedNoise" result="theNoise"><feFuncA type="table" tableValues="0 0 0.1 0"/></feComponentTransfer><feBlend in="SourceGraphic" in2="theNoise" mode="soft-light" result="noisy-image"/></filter></defs><g filter="url(#a)" clip-path="url(#b)"><path fill="#45c8f7" d="M811.5 573.5Q703 647 674 796T510 915q-135-30-196-133t-92.5-192.5Q190 500 203.5 397T302 223.5Q387 153 493.5 173t222 53.5Q831 260 875.5 380t-64 193.5Z"/></g></svg>